<svg width="1208" height="1208" viewBox="0 0 1208 1208" fill="none" xmlns="http://www.w3.org/2000/svg">
<path d="M4 975.466V1.36858C160.239 -12.6275 216.825 84.1788 225.589 134.331V776.024H443.422L342.017 975.466H4Z" fill="white"/>
<path d="M1204 458.207V1200H1132.64C1030.48 1183.2 994.927 1095.03 989.919 1053.04V948.071C809.644 1026.45 649.399 962.067 591.811 920.078L730.773 766.121C892.27 846.599 982.408 731.131 989.919 671.648V493.197C956.118 255.264 685.704 321.745 663.17 426.716L467.871 510.693L580.544 573.675C564.269 609.832 526.461 687.043 505.429 706.638C484.397 726.232 459.108 735.796 449.093 738.129C238.771 52.3205 1132.64 -52.6504 1204 458.207Z" fill="white"/>
<path d="M435.911 776.053L334.506 975.497C353.285 975.497 419.386 971.298 488.491 960.101C557.597 948.905 649.988 886.622 680.034 848.133L807.729 645.189L901.623 687.178L841.531 396.759L567.362 508.727L649.988 561.213C607.423 621.862 522.293 745.261 522.293 753.659C522.293 762.057 463.453 771.387 435.911 776.053Z" fill="url(#paint0_linear_28_43)"/>
<defs>
<linearGradient id="paint0_linear_28_43" x1="618.064" y1="396.759" x2="618.064" y2="975.497" gradientUnits="userSpaceOnUse">
<stop stop-color="#FB923C"/>
<stop offset="1" stop-color="#F97316"/>
</linearGradient>
</defs>
</svg>
